<svg width="323" height="44" viewBox="0 0 323 44" fill="none" xmlns="http://www.w3.org/2000/svg">
<path d="M55.4231 8.64771C41.1341 8.64771 29.5518 14.4973 29.5518 21.7122C29.5518 28.927 41.1352 34.7766 55.4231 34.7766C69.7112 34.7766 81.2945 28.927 81.2945 21.7122C81.2945 14.4973 69.7112 8.64771 55.4231 8.64771ZM55.4723 34.3226C42.1104 34.3226 31.2799 28.6857 31.2799 21.731C31.2799 14.7763 42.1104 9.13937 55.4723 9.13937C68.8331 9.13937 79.6646 14.7763 79.6646 21.731C79.6646 28.6857 68.8331 34.3226 55.4723 34.3226Z" fill="white"/>
<path d="M55.5045 8.58325C47.6724 8.58325 41.3237 14.4473 41.3237 21.6798C41.3237 28.9124 47.6724 34.7764 55.5045 34.7764C63.3355 34.7764 69.6851 28.9124 69.6851 21.6798C69.6851 14.4462 63.3366 8.58325 55.5045 8.58325ZM55.5693 34.3213C48.68 34.3213 43.0944 28.6987 43.0944 21.7629C43.0944 14.827 48.68 9.20444 55.5693 9.20444C62.4586 9.20444 68.0442 14.827 68.0442 21.7629C68.0442 28.6987 62.4586 34.3213 55.5693 34.3213Z" fill="white"/>
<path d="M72.5436 12.4987C68.0619 14.6113 62.0741 15.9057 55.4875 15.9057C48.7558 15.9057 42.6485 14.5537 38.1364 12.3569C37.9979 12.4777 37.827 12.5684 37.6226 12.615C42.0128 15.0841 48.4229 16.642 55.5691 16.642C62.4662 16.642 68.674 15.1882 73.0455 12.8674C72.8365 12.7899 72.6687 12.6592 72.5436 12.4987Z" fill="white"/>
<path d="M38.279 30.8501C42.7608 28.7375 48.7486 27.442 55.3352 27.442C62.0669 27.442 68.1742 28.7939 72.6862 30.9907C72.8237 30.87 72.996 30.7793 73.199 30.7328C68.8099 28.2647 62.3987 26.7046 55.2536 26.7046C48.3565 26.7046 42.1487 28.1584 37.7773 30.4792C37.9874 30.5589 38.1538 30.6885 38.279 30.8501Z" fill="white"/>
<path d="M79.8621 21.1772H31.1689V21.8926H79.8621V21.1772Z" fill="white"/>
<path d="M55.57 34.5495C55.6627 34.5495 55.7499 34.5584 55.8325 34.5738V9.00854H55.1108V34.6237C55.2472 34.576 55.3991 34.5495 55.57 34.5495Z" fill="white"/>
<path d="M65.4601 10.7338L66.3136 8.6189H60.9302L55.6127 21.2748H54.004L57.3856 12.3603L54.9893 12.3282L53.6052 16.053H53.3148L51.9362 12.3437H49.5076L52.2647 19.7014L51.6301 21.2194H51.1487L47.5817 12.3271H45.2838L44.8459 16.1881L44.561 16.1659L43.445 12.3703L41.0376 12.3592L43.7299 21.6313H46.1261L46.5529 16.6531H46.8154L55.4485 38.2888L62.0138 21.5328V21.2404L58.0089 21.2726L58.7641 19.3205L62.178 19.3526L63.0315 17.1724H59.8142L60.5694 15.0897H63.7867L64.6726 12.9427H61.4228L62.3422 10.7304H65.4601V10.7338ZM58.8133 23.6709L55.6127 31.7948H55.3502L52.1831 23.6709H58.8133Z" fill="#F24944"/>
<path d="M55.4537 39.5046L46.8854 18.0295L46.5391 22.0753H43.3955L40.4463 11.9141L43.7831 11.9296L44.5751 14.6247L44.8857 11.8853H47.8863L51.3941 20.6315L51.7862 19.6937L48.866 11.9008H52.2498L53.4619 15.1617L54.6807 11.8809L58.0286 11.9263L54.6505 20.8319H55.3152L60.6327 8.17603H66.9734L65.7625 11.1767H62.6412L62.0905 12.5032H65.3391L64.0868 15.5359H60.884L60.4506 16.7329H63.6846L62.4837 19.801L59.0709 19.769L58.6621 20.8275L62.4614 20.7965V21.6192L55.4537 39.5046ZM46.1436 16.2113H47.1211L55.447 37.0764L61.4761 21.6889L57.3595 21.7222L58.4599 18.8765L61.8749 18.9086L62.381 17.6176H59.1815L60.2573 14.6491H63.488L64.0086 13.3879H60.7578L62.0447 10.2898H65.1593L65.6553 9.06072H61.2303L55.9129 21.7166H53.3613L56.7451 12.7933L55.3006 12.7734L53.9187 16.4937H53.005L51.6264 12.7844H50.1519L52.7469 19.7081L51.9314 21.6601H50.8478L47.2808 12.7678H45.6856L45.2443 16.6598L44.221 16.5812L43.1117 12.8088L41.6349 12.8021L44.0691 21.1863H45.718L46.1436 16.2113ZM55.9196 32.2388H55.0448L51.5315 23.2291H59.4675L55.9196 32.2388ZM52.8351 24.1138L55.4839 30.9068L58.1605 24.1138H52.8351Z" fill="#080213"/>
<path d="M65.4601 10.7335L66.3136 8.61865H60.9302L55.6127 21.2745H54.004L57.3856 12.36L54.9893 12.3279L53.6052 16.0527H53.3147L51.9362 12.3434H49.5076L52.2646 19.7011L51.6301 21.2191H51.1487L47.5817 12.3268H45.2838L44.8458 16.1878L44.561 16.1657L43.445 12.37L41.0376 12.3589L43.7299 21.6311H46.1261L46.5528 16.6528H46.8153L55.4485 38.2885L62.0138 21.5325V21.2402L58.0089 21.2723L58.7641 19.3202L62.178 19.3524L63.0315 17.1721H59.8142L60.5693 15.0894H63.7866L64.6725 12.9425H61.4228L62.3422 10.7302H65.4601V10.7335ZM58.8132 23.6706L55.6127 31.7945H55.3502L52.1831 23.6706H58.8132Z" fill="white"/>
<path d="M22.0656 16.4326C21.4299 15.9498 21.0624 15.1726 21.5383 14.4063C21.9583 13.7298 22.8889 13.5427 23.7602 14.0742C24.7009 14.6477 24.9544 15.5125 24.5165 16.2178C24.0529 16.9641 23.1045 17.0837 22.2789 16.5854L21.9941 17.0438L22.7995 17.5354C23.176 17.7646 23.2262 17.7514 23.4363 17.4712L23.5893 17.5642L22.8442 18.7645L22.6911 18.6715C22.8509 18.3559 22.8431 18.3005 22.4666 18.0713L20.7954 17.0516C20.4234 16.8246 20.3653 16.8401 20.153 17.1235L20 17.0272L20.7451 15.8281L20.8982 15.9211C20.7406 16.2333 20.7507 16.2842 21.1272 16.5134L21.7706 16.9054L22.0656 16.4326ZM22.5537 15.9089C23.3715 16.4082 24.1077 16.4769 24.359 16.0717C24.55 15.7639 24.3679 15.2888 23.4977 14.7584C22.5962 14.2081 21.9136 14.2004 21.6846 14.5691C21.4835 14.8924 21.7706 15.4305 22.5537 15.9089Z" fill="white"/>
<path d="M27.9386 12.1777C27.6895 12.4356 27.4784 12.4257 27.1589 12.3072C27.0081 12.2496 26.7422 12.1345 26.4529 11.9994C26.0529 11.8167 25.8664 11.8776 25.701 12.0558L26.3914 12.7113C26.7511 13.0535 26.8003 13.0535 27.0751 12.8143L27.2047 12.9372L26.2138 13.9614L26.0842 13.8385C26.311 13.5595 26.3154 13.5041 25.9558 13.162L25.2654 12.5065C25.0889 12.6814 25.023 12.883 25.2229 13.2716C25.3682 13.5551 25.5055 13.8042 25.5726 13.947C25.7055 14.2582 25.7278 14.4641 25.4821 14.7177L25.1034 15.1096L24.9738 14.9867C25.1112 14.8074 25.1559 14.6656 25.0341 14.3578C24.9191 14.05 24.7906 13.7776 24.7291 13.6204C24.604 13.2705 24.6442 13.0457 24.7694 12.8143L24.7582 12.8033C24.6789 12.8332 24.4298 12.8929 24.0142 12.7556C23.5562 12.604 23.4143 12.5884 23.2847 12.7224L23.221 12.7878C23.1484 12.863 23.0367 12.883 22.9473 12.7977C22.8434 12.6992 22.839 12.5497 22.9853 12.4058C23.1417 12.2507 23.3629 12.2363 23.7327 12.3836C24.1527 12.5519 24.3672 12.6172 24.5716 12.6128C24.8174 12.6084 24.9403 12.5408 25.1168 12.3659L24.594 11.8687C24.26 11.5521 24.2041 11.5576 23.9326 11.7946L23.8031 11.6717L24.7939 10.6475L24.9235 10.7704C24.6968 11.0494 24.6956 11.1014 25.0297 11.4181L25.5525 11.9152C25.7178 11.737 25.8016 11.5919 25.7848 11.3583C25.7804 11.1568 25.6955 10.9497 25.5156 10.5622C25.3469 10.1846 25.3558 9.96204 25.5089 9.79707C25.6385 9.65647 25.796 9.65424 25.8965 9.74946C25.9926 9.84136 25.9602 9.94874 25.8943 10.024L25.8273 10.0927C25.701 10.2234 25.72 10.3728 25.8954 10.8102C26.0552 11.2121 26.0015 11.4657 25.9781 11.5421L25.9893 11.5532C26.2171 11.4203 26.4428 11.3705 26.797 11.4834C26.9612 11.5343 27.2416 11.6495 27.5566 11.7503C27.8716 11.8588 28.0135 11.8078 28.1878 11.6639L28.3173 11.7868L27.9386 12.1777Z" fill="white"/>
<path d="M29.2019 7.26571C28.9249 7.51819 28.9204 7.55913 29.184 7.9046L30.3782 9.46803C30.6385 9.80911 30.6877 9.81019 31.0004 9.62085L31.1088 9.76258L29.9403 10.6384L29.8319 10.4967C30.1123 10.242 30.1246 10.1944 29.861 9.84895L29.2845 9.09379L28.2389 9.87773L28.8153 10.6329C29.079 10.9783 29.1281 10.9795 29.4331 10.7956L29.5415 10.9374L28.3998 11.7933L28.2914 11.6516C28.5495 11.4135 28.5651 11.3637 28.3015 11.0182L27.1128 9.45809C26.8492 9.11262 26.7967 9.11485 26.4795 9.30637L26.3711 9.16468L27.5206 8.30322L27.629 8.44496C27.3754 8.67969 27.3631 8.7273 27.6267 9.07277L28.0825 9.66959L29.1281 8.88565L28.6724 8.28883C28.4087 7.94336 28.3596 7.94227 28.0501 8.1294L27.9418 7.98766L29.0946 7.12402L29.2019 7.26571Z" fill="white"/>
<path d="M31.1502 7.40199C31.2821 7.30346 31.4172 7.22154 31.5546 7.14293C32.1378 6.81185 32.6818 6.89045 32.9879 7.42082C33.2124 7.80946 33.17 8.13946 33.0259 8.39742C32.8863 8.65322 32.6081 8.88127 32.283 9.06509L31.2497 9.65196L31.1603 9.49693C31.4619 9.29097 31.4787 9.23451 31.2419 8.82259L30.3023 7.19717C30.0644 6.78639 30.0119 6.78085 29.6924 6.92699L29.603 6.772L30.862 6.05782L30.9514 6.2128C30.633 6.42875 30.6151 6.47413 30.8576 6.89376L31.1502 7.40199ZM32.407 7.80506C32.1132 7.29683 31.7792 7.27469 31.4295 7.47397C31.3625 7.51164 31.3156 7.54486 31.2575 7.58911L31.8038 8.53471C31.9881 8.8525 32.1367 8.90896 32.3109 8.81043C32.5209 8.69084 32.7343 8.37088 32.407 7.80506ZM33.5543 8.34428L33.4649 8.18924C33.7576 7.98773 33.7721 7.92682 33.5476 7.53819L32.5768 5.85848C32.3623 5.4876 32.3065 5.47761 31.9836 5.62597L31.8943 5.47099L33.141 4.76343L33.2303 4.91847C32.9377 5.11998 32.922 5.16981 33.141 5.54959L34.1117 7.2293C34.3318 7.60908 34.3876 7.6301 34.7116 7.48173L34.801 7.63677L33.5543 8.34428Z" fill="white"/>
<path d="M36.778 6.79949L36.7065 6.63565C37.0461 6.45624 37.0651 6.4031 36.8752 5.96908L36.3948 4.8718C36.3211 4.70346 36.2306 4.49755 36.0563 4.04025L36.0429 4.04579L35.9346 6.86925C35.9301 6.95453 35.948 7.00767 35.9748 7.06858L36.0038 7.13389L34.9861 7.57236L34.9147 7.40852C35.2464 7.23242 35.2654 7.16934 35.071 6.72533L34.3382 5.05339C34.1393 4.60053 34.0835 4.57947 33.7282 4.70015L33.6567 4.53631L34.9738 3.96936L35.0453 4.13324C34.7359 4.29936 34.7135 4.34252 34.908 4.78652L35.3257 5.73988C35.4073 5.92701 35.5157 6.1739 35.7111 6.67881L35.7201 6.6755L35.834 3.86643C35.843 3.79 35.8296 3.72355 35.8128 3.68702L35.7837 3.62171L36.797 3.18547L36.8685 3.34931C36.5367 3.52535 36.5177 3.58849 36.702 4.00925L37.4539 5.72327C37.6438 6.15729 37.7008 6.17835 38.0515 6.05985L38.123 6.22373L36.778 6.79949ZM34.3985 3.47112C34.3516 3.36369 34.3706 3.22754 34.489 3.17657C34.6298 3.11571 34.7314 3.22754 34.7616 3.32053C34.8163 3.44675 34.9291 3.54864 35.1056 3.47221C35.2822 3.39583 35.2799 3.24746 35.2241 3.12125C35.176 3.03597 35.1626 2.88647 35.3045 2.82561C35.4274 2.77246 35.5369 2.85329 35.5838 2.96067C35.7044 3.23639 35.5469 3.49881 35.1816 3.65602C34.8197 3.81106 34.5192 3.74684 34.3985 3.47112Z" fill="white"/>
<path d="M41.1093 1.96877C40.8009 2.12376 40.773 2.21121 40.7328 2.60874C40.6926 3.05384 40.5831 4.26739 40.5395 4.68702C40.4613 5.44219 40.2234 5.66031 39.9665 5.74005C39.7833 5.79651 39.5632 5.73674 39.5029 5.54739C39.4772 5.44881 39.504 5.36027 39.5565 5.30159C39.6134 5.24177 39.705 5.213 39.8424 5.25062C39.9329 5.28166 40.0458 5.28938 40.115 5.26723C40.2301 5.23183 40.3161 5.04471 40.258 4.85976C40.2278 4.76232 40.1564 4.6671 40.0402 4.53757C39.8324 4.30838 38.8784 3.24872 38.6829 3.04276C38.5332 2.88664 38.4717 2.83571 38.1601 2.88446L38.1064 2.71395L39.3889 2.31533L39.4426 2.48584L39.3107 2.56445C39.228 2.62204 39.2314 2.67959 39.3342 2.79696L40.4055 4.02267C40.4367 3.51667 40.4714 3.05166 40.4814 2.55782C40.4837 2.32749 40.4502 2.2522 40.2927 2.26441L40.115 2.27657L40.0614 2.10606L41.0556 1.79712L41.1093 1.96877Z" fill="white"/>
<path d="M44.7267 1.11956C44.3704 1.23802 44.3491 1.27455 44.4474 1.69641L44.8943 3.60645C44.9915 4.02277 45.0362 4.04492 45.4004 3.99731L45.4406 4.17113L44.014 4.49886L43.9738 4.32503C44.3346 4.20544 44.3659 4.16668 44.2665 3.74483L44.0509 2.82137L42.774 3.11479L42.9896 4.03824C43.0879 4.4601 43.1326 4.48116 43.4868 4.43577L43.527 4.6096L42.1328 4.9307L42.0926 4.75687C42.4255 4.64391 42.4612 4.60406 42.3629 4.1822L41.9172 2.27661C41.8189 1.85476 41.7697 1.83483 41.4011 1.88244L41.3608 1.70862L42.764 1.38529L42.8042 1.55912C42.4757 1.67095 42.4456 1.70971 42.5439 2.13156L42.7148 2.86127L43.9917 2.5678L43.8208 1.83815C43.7225 1.41629 43.6778 1.39523 43.3192 1.44066L43.2789 1.26679L44.6865 0.942383L44.7267 1.11956Z" fill="white"/>
<path d="M47.5838 3.84224L47.557 3.66619C47.9324 3.57873 47.9637 3.53221 47.8922 3.06383L47.7112 1.88019C47.6833 1.6986 47.6498 1.47717 47.5995 0.989956L47.585 0.99218L46.7505 3.69387C46.7237 3.7747 46.7281 3.83116 46.7382 3.89652L46.7493 3.96736L45.6523 4.13234L45.6255 3.95629C45.9908 3.86992 46.0266 3.81346 45.9528 3.33515L45.6769 1.53254C45.6021 1.04424 45.5529 1.00988 45.1787 1.03539L45.1519 0.859316L46.5717 0.645619L46.5985 0.821673C46.2567 0.903607 46.2232 0.940146 46.2969 1.41848L46.4545 2.44601C46.4857 2.64752 46.5259 2.91438 46.584 3.45138L46.593 3.45029L47.4297 0.762985C47.4576 0.69212 47.4621 0.624578 47.4554 0.583614L47.4442 0.512749L48.5356 0.348877L48.5624 0.524926C48.1972 0.611294 48.1614 0.667762 48.2307 1.12062L48.5133 2.96862C48.5848 3.43699 48.6339 3.4713 49.0037 3.44584L49.0305 3.62189L47.5838 3.84224Z" fill="white"/>
<path d="M50.8473 1.6952C51.4081 1.72066 51.7923 1.92884 51.8326 2.41047C51.8616 2.75041 51.7064 3.02944 51.4516 3.2088C51.2204 3.376 50.8573 3.47789 50.4607 3.51111L49.2453 3.61187L49.2308 3.43468C49.5961 3.36828 49.6363 3.32952 49.5995 2.89768L49.4352 0.958889C49.3984 0.522632 49.3526 0.496059 49.0096 0.488307L48.9951 0.311145L50.3926 0.194887C50.7557 0.164987 51.0003 0.195994 51.1969 0.302286C51.379 0.409691 51.5019 0.608995 51.5231 0.858129C51.5645 1.34533 51.1835 1.57675 50.8451 1.67636L50.8473 1.6952ZM50.2384 1.67419C50.7021 1.63543 50.8875 1.42616 50.8518 1.00539C50.8126 0.543668 50.5445 0.391977 50.2865 0.413013C50.1815 0.421872 50.1033 0.463949 50.0764 0.497166C50.0463 0.535916 50.0429 0.612318 50.0519 0.718615L50.1334 1.68304L50.2384 1.67419ZM50.2306 2.83569C50.2619 3.21102 50.3669 3.3096 50.6205 3.28409C50.8875 3.25646 51.1724 3.0239 51.1299 2.52675C51.0897 2.04952 50.787 1.83471 50.2463 1.87901L50.1502 1.88677L50.2306 2.83569Z" fill="white"/>
<path d="M54.7292 2.46262C54.7024 2.69291 54.6186 3.15906 54.5851 3.31187L52.1375 3.3794L52.133 3.20113C52.5397 3.15466 52.5877 3.12252 52.5754 2.68959L52.5196 0.735292C52.5072 0.292391 52.4581 0.268033 52.1163 0.246997L52.1118 0.0687278L54.3729 0.00561523C54.3807 0.0975157 54.4142 0.452946 54.4421 0.767402L54.2656 0.797297C54.2176 0.62014 54.1506 0.454053 54.0612 0.364363C53.9774 0.274677 53.8467 0.242567 53.5774 0.250319L53.3473 0.256963C53.1697 0.261388 53.1507 0.272462 53.1552 0.440764L53.1853 1.52033L53.5071 1.51148C53.9104 1.50041 53.9763 1.47272 54.0288 1.11509L54.2019 1.11064L54.231 2.13376L54.0578 2.13816C53.9852 1.7739 53.9226 1.75507 53.5138 1.76614L53.1921 1.77499L53.2166 2.65528C53.2233 2.89995 53.2468 3.02622 53.344 3.07491C53.4311 3.11367 53.5953 3.11921 53.7774 3.11367C54.0265 3.107 54.1941 3.06607 54.3014 2.93649C54.3941 2.82135 54.4756 2.65637 54.5561 2.43049L54.7292 2.46262Z" fill="white"/>
<path d="M56.3011 0.03211C56.6798 0.0409693 56.9479 0.104082 57.1367 0.251343C57.3579 0.419645 57.4808 0.677638 57.473 1.00869C57.4562 1.69078 56.9725 1.98974 56.462 2.04397C56.3894 2.05282 56.3179 2.05064 56.2654 2.04951L55.9414 1.95543L55.9235 2.6574C55.9124 3.09033 55.9548 3.12686 56.3626 3.17229L56.3581 3.34498L54.8701 3.30845L54.8745 3.13571C55.2354 3.10916 55.2801 3.07485 55.2901 2.64192L55.3393 0.692029C55.3504 0.259095 55.308 0.222555 54.9729 0.178269L54.9762 0L56.3011 0.03211ZM55.9459 1.75609C56.0029 1.78269 56.1034 1.81146 56.2039 1.81369C56.3771 1.81809 56.7636 1.69518 56.7815 1.0076C56.796 0.431827 56.4977 0.235844 56.205 0.2292C56.1134 0.226985 56.0554 0.251343 56.0263 0.275706C55.9917 0.305602 55.9805 0.356532 55.9794 0.432934L55.9459 1.75609Z" fill="white"/>
<path d="M60.7871 2.76937C60.7033 3.01295 60.5458 3.38833 60.4486 3.55885C60.3212 3.57877 59.8722 3.64299 59.547 3.6153C58.2747 3.50788 57.8234 2.58447 57.8938 1.77838C57.9842 0.733128 58.7975 0.0754231 59.9414 0.172861C60.3291 0.206078 60.6742 0.34227 60.8005 0.378805C60.8195 0.661156 60.8329 0.898107 60.8385 1.22586L60.6586 1.24687C60.5525 0.634583 60.1995 0.425311 59.8308 0.394308C59.1371 0.335625 58.6947 0.993355 58.6299 1.74402C58.5495 2.67301 58.9707 3.32743 59.6208 3.3828C60.0174 3.41597 60.338 3.17239 60.6262 2.68078L60.7871 2.76937Z" fill="white"/>
<path d="M62.765 3.94292L62.7929 3.76687C63.1772 3.79569 63.2219 3.76024 63.2945 3.293L63.4799 2.11044C63.5078 1.92886 63.5436 1.70738 63.643 1.22797L63.6285 1.22575L62.0143 3.55428C61.964 3.62404 61.9506 3.67832 61.9405 3.74363L61.9294 3.81448L60.8335 3.6451L60.8614 3.46905C61.2368 3.4956 61.287 3.45244 61.3619 2.97408L61.6445 1.1726C61.7216 0.684299 61.6847 0.637792 61.3194 0.550321L61.3473 0.374268L62.7661 0.593501L62.7382 0.769555C62.3874 0.746304 62.3438 0.770662 62.269 1.24899L62.1081 2.27542C62.0768 2.47693 62.0344 2.7438 61.9271 3.27303L61.9361 3.27417L63.5481 0.961112C63.5961 0.901317 63.6207 0.838205 63.6274 0.798343L63.6386 0.727478L64.73 0.89578L64.7021 1.07185C64.3267 1.04525 64.2765 1.08846 64.2061 1.54131L63.9167 3.38822C63.843 3.85655 63.8799 3.90307 64.2407 3.98944L64.2128 4.16549L62.765 3.94292Z" fill="white"/>
<path d="M67.5154 2.415C67.5188 2.14374 67.492 1.95993 67.4283 1.8525C67.3646 1.74398 67.2529 1.69306 66.977 1.62998L66.7658 1.58232L66.2263 3.93082C66.1291 4.35268 66.1693 4.39366 66.5726 4.52097L66.5324 4.69484L65.0064 4.34937L65.0466 4.17554C65.4477 4.22978 65.5013 4.21094 65.5985 3.788L66.1403 1.43949L65.9816 1.40296C65.5929 1.3155 65.4979 1.34541 65.413 1.41517C65.3136 1.48156 65.2186 1.63769 65.1013 1.87242L64.9282 1.83371C65.031 1.47494 65.1416 1.11953 65.2097 0.868164L65.327 0.894737C65.3717 1.01986 65.4298 1.04863 65.565 1.07963L67.4462 1.50594C67.568 1.53362 67.6405 1.5181 67.7411 1.44172L67.8584 1.46831C67.8149 1.67758 67.7378 2.12045 67.6875 2.44378L67.5154 2.415Z" fill="white"/>
<path d="M70.0068 4.79108C69.9085 5.00144 69.6841 5.4189 69.6035 5.55505L67.2554 4.86638L67.3068 4.69586C67.7078 4.7767 67.7636 4.76008 67.8877 4.34485L68.4485 2.46917C68.5758 2.04396 68.5367 2.00633 68.2183 1.88121L68.2697 1.71069L70.4382 2.34627C70.4168 2.43595 70.3374 2.78474 70.2649 3.09254L70.0872 3.06708C70.0971 2.8844 70.0852 2.70499 70.0281 2.59316C69.9755 2.48247 69.8618 2.41158 69.6046 2.33628L69.3835 2.27098C69.2136 2.22114 69.1913 2.22559 69.1433 2.38612L68.8338 3.4214L69.1421 3.51217C69.5287 3.62513 69.6002 3.6196 69.762 3.29518L69.9273 3.34388L69.6348 4.32602L69.4695 4.27732C69.5153 3.90856 69.4605 3.87094 69.0696 3.7558L68.7612 3.66498L68.5088 4.50983C68.4384 4.74456 68.4205 4.87191 68.4987 4.94721C68.5702 5.01029 68.7232 5.06675 68.8986 5.11772C69.1377 5.18748 69.3097 5.20073 69.4516 5.10996C69.5756 5.02913 69.7054 4.89737 69.8529 4.70694L70.0068 4.79108Z" fill="white"/>
<path d="M73.1628 4.24289C73.202 3.97494 73.1995 3.7889 73.1504 3.67376C73.1012 3.55748 72.9975 3.49327 72.7329 3.39473L72.5303 3.32058L71.6858 5.57936C71.5339 5.98569 71.5687 6.02998 71.9529 6.20939L71.8904 6.37654L70.4224 5.83732L70.4849 5.67012C70.8761 5.77533 70.9317 5.76317 71.0836 5.35792L71.9281 3.09909L71.7752 3.04264C71.4009 2.90535 71.3026 2.92305 71.2087 2.98173C71.1015 3.03487 70.9878 3.1777 70.8394 3.39473L70.6726 3.33383C70.8215 2.99172 70.9789 2.65287 71.0782 2.4126L71.1909 2.45358C71.2192 2.58311 71.2728 2.61964 71.4034 2.6673L73.2139 3.33274C73.3316 3.3759 73.4051 3.37036 73.5158 3.30728L73.6285 3.34821C73.558 3.55086 73.4239 3.97939 73.3316 4.29273L73.1628 4.24289Z" fill="white"/>
<path d="M74.2244 8.35199C73.8188 7.5725 73.8689 6.72434 74.2676 5.88063L74.27 5.87618C74.6667 5.03687 75.2898 4.46002 76.1556 4.26514L76.2107 4.44227C75.6204 4.68037 75.0564 5.27936 74.6821 6.07215C74.3068 6.86608 74.202 7.73856 74.3996 8.27561L74.2244 8.35199Z" fill="white"/>
<path d="M76.6306 8.62552L76.7185 8.47048C77.0685 8.62997 77.1221 8.61336 77.3564 8.20035L77.9477 7.15622C78.038 6.99673 78.1487 6.80076 78.4109 6.38553L78.399 6.3789L76.0651 8.00102C75.9936 8.04863 75.9624 8.09515 75.9301 8.15383L75.8943 8.21583L74.9268 7.67769L75.0151 7.5227C75.3567 7.67769 75.4192 7.65446 75.6585 7.2326L76.5591 5.64257C76.8024 5.21187 76.7855 5.15541 76.4742 4.94723L76.5621 4.79224L77.8146 5.48867L77.7263 5.64371C77.4056 5.49975 77.3564 5.5086 77.1176 5.93045L76.6048 6.83621C76.504 7.01334 76.3714 7.24921 76.083 7.70874L76.0909 7.71314L78.4178 6.10432C78.4838 6.06556 78.5295 6.01464 78.5494 5.9792L78.5851 5.9172L79.5482 6.45311L79.4599 6.6081C79.1183 6.45311 79.0558 6.47635 78.8289 6.87605L77.905 8.50593C77.6717 8.91893 77.6885 8.97539 77.9953 9.18135L77.9075 9.33639L76.6306 8.62552Z" fill="white"/>
<path d="M82.3129 8.59231C82.0026 8.44286 81.9142 8.47495 81.5712 8.68313C81.1894 8.92118 80.1493 9.57005 79.7859 9.78926C79.1326 10.1857 78.8129 10.1292 78.593 9.9753C78.4366 9.86569 78.3507 9.65528 78.4668 9.49362C78.5304 9.41279 78.6178 9.3807 78.6967 9.38624C78.7796 9.394 78.8576 9.44932 78.9112 9.57999C78.9415 9.66967 79.004 9.7638 79.0621 9.80478C79.1604 9.8734 79.3629 9.82916 79.4756 9.67081C79.5347 9.58775 79.5695 9.4737 79.6017 9.30432C79.6598 9.00092 79.9324 7.60686 79.9781 7.32784C80.0128 7.11525 80.0163 7.03556 79.7884 6.81961L79.8922 6.67456L80.9893 7.4452L80.8856 7.59025L80.7436 7.5338C80.6473 7.50389 80.6026 7.54156 80.5703 7.69323L80.2352 9.28104C80.6607 8.99869 81.0539 8.74513 81.456 8.4528C81.6427 8.31551 81.6829 8.24353 81.5781 8.12616L81.4605 7.99441L81.5647 7.84936L82.4146 8.44617L82.3129 8.59231Z" fill="white"/>
<path d="M82.5903 10.4235C82.7124 10.5165 82.8241 10.6073 82.9745 10.7391C83.4933 11.193 83.5926 11.7212 83.2084 12.153C82.9289 12.4664 82.626 12.5405 82.3237 12.4929C82.0521 12.4519 81.7304 12.246 81.4499 12.0002L80.5171 11.1841L80.6333 11.0546C80.9306 11.2738 80.9872 11.276 81.3238 10.8974L82.5471 9.52218C82.8797 9.14793 82.8688 9.09696 82.626 8.84344L82.7422 8.71387L84.4594 10.2164C84.3745 10.3117 84.1546 10.5885 83.9545 10.8476L83.8001 10.7468C83.9029 10.5453 83.9456 10.4257 83.9655 10.2873C83.9868 10.1555 83.9456 10.0659 83.7257 9.87319L83.5023 9.67831C83.3692 9.56203 83.3613 9.5554 83.2362 9.69709L82.5903 10.4235ZM82.6484 11.7311C83.0093 11.3259 82.9254 10.9882 82.6196 10.7213C82.5615 10.6704 82.5044 10.6272 82.4473 10.584L81.7672 11.348C81.5055 11.6425 81.509 11.7677 81.6922 11.9282C81.862 12.0755 82.2577 12.1696 82.6484 11.7311Z" fill="white"/>
<path d="M85.8968 13.4984C85.6779 13.3035 85.6307 13.319 85.4322 13.4973L84.4924 14.3355C84.2859 14.5193 84.269 14.5614 84.4412 14.7972L84.3196 14.9057L83.5387 14.0465L83.6603 13.938C83.8435 14.0941 83.8936 14.0885 84.0927 13.9114L84.5931 13.4652C84.688 13.3799 84.7997 13.2814 85.1025 13.0367L85.0961 13.03L83.4056 13.6279C83.3545 13.6479 83.3098 13.6745 83.2761 13.7054L83.2493 13.7298L82.6123 13.0289L82.7344 12.9204C82.9534 13.1153 82.9921 13.1064 83.1991 12.9215L84.1305 12.09C84.3405 11.9028 84.3583 11.8608 84.1885 11.6283L84.3037 11.5264L85.0812 12.3823L84.9665 12.4842C84.7833 12.3281 84.7327 12.3336 84.5341 12.5107L84.1141 12.8861C83.9919 12.9946 83.8237 13.1452 83.5432 13.37L83.5496 13.3766L85.248 12.7709C85.2882 12.7543 85.3249 12.7411 85.3473 12.7211L85.3706 12.7012L86.0075 13.402L85.8968 13.4984Z" fill="white"/>
<path d="M85.4546 16.5289L85.604 16.4303C85.8309 16.7149 85.8825 16.727 86.3025 16.4525L88.1111 15.2666C88.2784 15.157 88.2729 15.1492 88.1726 14.9986L87.709 14.3033C87.6082 14.1527 87.5948 14.1505 87.4488 14.2457L85.6263 15.4393C85.2063 15.715 85.1974 15.766 85.3652 16.0727L85.2153 16.1712L84.418 14.9765L84.5674 14.878C84.7997 15.1702 84.8514 15.1825 85.2714 14.9078L86.8228 13.8903C87.2264 13.6256 87.2353 13.5747 87.0432 13.2326L87.1927 13.134L89.0494 15.9176L88.9 16.0162C88.6617 15.715 88.6105 15.7028 88.1995 15.973L86.6555 16.9851C86.2355 17.2607 86.2266 17.3117 86.4073 17.6383L86.2578 17.7369L85.4546 16.5289Z" fill="white"/>
<path d="M85.5396 18.4025L85.6066 18.2342C86.1944 18.4269 87.0364 18.3084 87.8342 17.9319C88.6315 17.5554 89.2783 16.9343 89.4809 16.4072L89.6507 16.4648C89.4571 17.3196 88.8797 17.9407 88.0263 18.3427C87.1818 18.7402 86.3304 18.7934 85.5396 18.4025Z" fill="white"/>
<path d="M23.1853 25.8754C23.4746 25.7004 23.7974 25.4258 23.698 25.035C23.6299 24.7648 23.3752 24.6175 23.0858 24.6895C22.8121 24.7582 22.7016 24.9697 22.5843 25.4502C22.458 26.0193 22.267 26.4367 21.7732 26.5596C21.2046 26.7014 20.6427 26.3437 20.4651 25.6395C20.4215 25.4657 20.4036 25.2908 20.4115 25.1346C20.417 24.9896 20.4338 24.8877 20.4483 24.8179C20.5611 24.7382 20.9633 24.5721 21.2538 24.4636L21.3565 24.6176C21.0616 24.7936 20.5712 25.2176 20.6874 25.6805C20.7622 25.975 21.0192 26.1101 21.3375 26.0315C21.6314 25.9584 21.7621 25.7004 21.8704 25.2885C22.0056 24.7327 22.1866 24.3186 22.6647 24.199C23.2132 24.0628 23.7483 24.3751 23.9214 25.0604C23.9996 25.3694 23.9695 25.6683 23.9617 25.7624C23.7818 25.8278 23.5662 25.9174 23.2668 26.0326L23.1853 25.8754Z" fill="white"/>
<path d="M24.3902 30.1283C23.4194 30.6609 22.4542 30.3099 21.9951 29.4883C21.5091 28.618 21.832 27.6514 22.691 27.1808C23.4641 26.7567 24.5231 26.8741 25.0783 27.8707C25.5207 28.6612 25.2761 29.6422 24.3902 30.1283ZM23.1546 27.7998C22.3816 28.2238 21.9169 28.9059 22.2274 29.4618C22.4587 29.8748 23.063 29.9799 23.8908 29.526C24.7856 29.0355 25.1264 28.3933 24.8415 27.885C24.598 27.451 23.9322 27.3735 23.1546 27.7998Z" fill="white"/>
<path d="M28.2901 32.3153C28.0957 32.1271 27.9315 32.1082 27.7817 32.2101C27.6477 32.2987 27.4935 32.4105 27.2243 32.6552L26.811 33.0295C26.4088 33.3938 26.0357 33.6241 25.619 33.6241C25.2816 33.6197 24.9566 33.4569 24.7164 33.1956C24.493 32.9531 24.3332 32.6741 24.3109 32.3707C24.2919 32.0108 24.4818 31.6576 24.9253 31.2545L25.8201 30.4441C26.1765 30.1207 26.1653 30.0643 25.9419 29.7686L26.0748 29.6479L27.0936 30.753L26.9607 30.8737C26.687 30.6301 26.63 30.6135 26.2737 30.9368L25.447 31.6864C24.8784 32.2024 24.7309 32.6995 25.0962 33.0948C25.4983 33.5311 26.0156 33.4126 26.649 32.839L27.0545 32.4714C27.3238 32.2278 27.4511 32.0783 27.5483 31.9566C27.6611 31.8137 27.6589 31.6609 27.4444 31.3974L27.5773 31.2767L28.423 32.1946L28.2901 32.3153Z" fill="white"/>
<path d="M30.2962 34.7411C30.4135 34.4963 30.4671 34.317 30.4526 34.1896C30.4392 34.0623 30.3565 33.966 30.123 33.7844L29.9454 33.646L28.444 35.5405C28.1747 35.8816 28.1948 35.9358 28.52 36.2337L28.4094 36.3743L27.1235 35.3733L27.2341 35.2327C27.5871 35.463 27.6464 35.4696 27.9156 35.1286L29.417 33.2341L29.2829 33.13C28.9556 32.8753 28.8528 32.8598 28.7434 32.8853C28.6227 32.9008 28.4674 33.0004 28.2574 33.161L28.1111 33.047C28.3591 32.7669 28.6138 32.4934 28.7836 32.2952L28.8819 32.3715C28.8707 32.5055 28.9132 32.5576 29.0271 32.6473L30.6123 33.8818C30.7151 33.9616 30.7888 33.9804 30.9161 33.9571L31.0145 34.0335C30.8849 34.2052 30.6257 34.5728 30.4425 34.844L30.2962 34.7411Z" fill="white"/>
<path d="M34.3303 36.3664C33.9751 36.2015 33.9326 36.2125 33.7126 36.5857L32.7116 38.2776C32.4927 38.6463 32.5128 38.6928 32.8233 38.9153L32.7329 39.0693L31.4135 38.3019L31.504 38.148C31.8637 38.3163 31.914 38.3097 32.1352 37.9365L32.6189 37.1194L31.4381 36.4329L30.9544 37.25C30.7332 37.6232 30.7522 37.6697 31.0549 37.8867L30.9644 38.0406L29.6753 37.291L29.7657 37.1371C30.0998 37.2899 30.1545 37.2866 30.3757 36.9123L31.3744 35.2249C31.5956 34.8518 31.5721 34.8019 31.2571 34.5783L31.3476 34.4243L32.6457 35.1784L32.5552 35.3323C32.2257 35.1817 32.1754 35.1883 31.9542 35.5615L31.5721 36.207L32.753 36.8935L33.135 36.248C33.3562 35.8748 33.3372 35.8283 33.0311 35.6091L33.1216 35.4552L34.4242 36.2115L34.3303 36.3664Z" fill="white"/>
<path d="M36.3499 39.7715C36.2237 39.9664 35.9399 40.3484 35.8405 40.4713L33.5068 39.4327L33.5806 39.2699C33.9838 39.4106 34.0431 39.4028 34.2218 39.0075L35.0306 37.2237C35.2138 36.8196 35.178 36.7764 34.8664 36.6037L34.9401 36.4409L37.095 37.3998C37.0615 37.4851 36.9375 37.8205 36.8247 38.1173L36.6448 38.0653C36.6772 37.8848 36.6873 37.7043 36.6426 37.5847C36.6024 37.4662 36.494 37.3788 36.2382 37.2647L36.0181 37.1673C35.8483 37.092 35.826 37.0931 35.7567 37.2459L35.3099 38.2313L35.616 38.3675C36.0002 38.538 36.0751 38.5436 36.2818 38.2446L36.446 38.3177L36.0226 39.2511L35.8584 39.178C35.95 38.8171 35.8997 38.7717 35.5109 38.5989L35.2049 38.4627L34.8384 39.2711C34.7379 39.4936 34.7055 39.6132 34.7759 39.7007C34.8418 39.7748 34.9926 39.8534 35.1669 39.9299C35.4048 40.0362 35.5802 40.0749 35.7377 40.0052C35.8751 39.9431 36.0248 39.8313 36.2002 39.6641L36.3499 39.7715Z" fill="white"/>
<path d="M39.5864 41.8619C39.5585 41.8519 39.5071 41.8297 39.4456 41.8076C38.8592 41.5728 38.7262 41.3757 38.6391 41.0059C38.5855 40.7657 38.5486 40.4623 38.5005 40.16C38.4759 39.9895 38.4123 39.8976 38.2604 39.8455L38.1699 39.8145L37.923 40.5165C37.7823 40.9163 37.8102 40.9738 38.1587 41.1322L38.0995 41.3004L36.6685 40.8066L36.7277 40.6383C37.0952 40.7269 37.1622 40.7025 37.303 40.3028L37.952 38.4559C38.0872 38.0706 38.0615 38.0086 37.7275 37.8558L37.7867 37.6875L39.1183 38.147C39.535 38.2909 39.7551 38.4205 39.9036 38.6176C40.0478 38.8125 40.1014 39.0683 39.9964 39.3672C39.8478 39.7902 39.4914 39.9264 39.1284 39.9474C39.1485 40.1157 39.2121 40.4944 39.2769 40.7645C39.3485 41.0912 39.3976 41.2805 39.4523 41.4134C39.5171 41.5595 39.5774 41.6459 39.6691 41.7201L39.5864 41.8619ZM38.362 39.665C38.5609 39.7337 38.734 39.7558 38.8703 39.7005C39.0792 39.6219 39.2121 39.4514 39.2993 39.2066C39.4803 38.6918 39.2513 38.4083 38.9854 38.3164C38.867 38.2755 38.7944 38.2721 38.7553 38.2909C38.7117 38.3086 38.686 38.3529 38.6502 38.4537L38.2391 39.623L38.362 39.665Z" fill="white"/>
<path d="M44.3957 39.8179C44.1298 39.767 44.0092 39.8102 43.9288 40.0261C43.8751 40.1756 43.7869 40.4004 43.674 40.84L43.1725 42.7998L42.939 42.7411L41.5459 39.7748L41.5314 39.7715L41.2488 40.8776C41.1382 41.3117 41.1047 41.5397 41.0823 41.6925C41.0511 41.9162 41.1102 42.0302 41.4655 42.1355L41.4208 42.3082L40.23 42.0092L40.2747 41.8365C40.5517 41.8852 40.6835 41.8343 40.7573 41.6272C40.8187 41.4689 40.9047 41.2541 41.0153 40.82L41.2778 39.7936C41.3616 39.4681 41.3795 39.3773 41.3169 39.2356C41.2544 39.0938 41.1583 39.0274 40.9539 38.9554L40.9963 38.7871L41.8956 39.013L43.2026 41.6482L43.2171 41.6516L43.4395 40.7824C43.5523 40.3428 43.5869 40.1047 43.6092 39.9586C43.6394 39.7405 43.5635 39.632 43.2093 39.5212L43.2518 39.3529L44.4382 39.6508L44.3957 39.8179Z" fill="white"/>
<path d="M48.9467 40.553C48.6764 40.5275 48.5368 40.615 48.4843 40.7877C48.4351 40.9405 48.3871 41.1232 48.3323 41.4809L48.2486 42.0301C48.167 42.5638 48.0229 42.9756 47.699 43.2359C47.4342 43.4429 47.0778 43.5182 46.7248 43.4661C46.3975 43.4175 46.0959 43.3001 45.887 43.0775C45.6434 42.8096 45.5675 42.4165 45.6568 41.8274L45.8389 40.6393C45.9115 40.1654 45.8668 40.1278 45.5049 40.0381L45.5317 39.8621L47.0242 40.0868L46.9974 40.2629C46.6298 40.2441 46.5762 40.2662 46.5036 40.7401L46.336 41.8385C46.221 42.5936 46.4209 43.072 46.9572 43.1528C47.547 43.2414 47.8743 42.8273 48.0028 41.9858L48.0854 41.4465C48.1402 41.0889 48.1447 40.894 48.1424 40.739C48.1402 40.5585 48.0408 40.44 47.7068 40.3691L47.7336 40.1931L48.9736 40.3791L48.9467 40.553Z" fill="white"/>
<path d="M52.8262 40.8398C52.5547 40.8353 52.4441 40.8996 52.4028 41.1254C52.376 41.2816 52.329 41.5185 52.2955 41.9703L52.1469 43.9877L51.9068 43.97L50.0111 41.2893L49.9965 41.2882L49.9127 42.4265C49.8803 42.8738 49.8881 43.1041 49.8915 43.2569C49.9004 43.4828 49.9775 43.5847 50.3473 43.6267L50.3339 43.805L49.1084 43.7164L49.1218 43.5382C49.4033 43.5382 49.524 43.4651 49.5608 43.2481C49.5932 43.0819 49.6401 42.855 49.6726 42.4087L49.7496 41.3524C49.7742 41.017 49.7764 40.9251 49.6904 40.7966C49.6044 40.6682 49.4972 40.6194 49.2838 40.5829L49.2961 40.4102L50.2222 40.4766L51.9749 42.845L51.9895 42.8461L52.0553 41.9514C52.0889 41.4997 52.0811 41.2583 52.0766 41.11C52.0677 40.8896 51.9738 40.7966 51.6052 40.749L51.6175 40.5763L52.8385 40.6648L52.8262 40.8398Z" fill="white"/>
<path d="M53.291 43.969L53.2933 43.7907C53.6697 43.7608 53.7155 43.7254 53.7211 43.298L53.749 41.3481C53.7557 40.9097 53.7111 40.8787 53.3346 40.8377L53.3368 40.6594L54.8461 40.6805L54.8438 40.8588C54.4674 40.8886 54.4271 40.9185 54.4204 41.357L54.3925 43.3069C54.3858 43.7343 54.426 43.7708 54.8014 43.8118L54.7991 43.9901L53.291 43.969Z" fill="white"/>
<path d="M58.7876 40.7425C58.4636 40.7912 58.3753 40.8565 58.1955 41.3482C58.0469 41.7523 57.6392 42.926 57.2917 43.9901L57.0415 44.0001C56.6617 43.0832 56.1389 41.8764 55.9121 41.3548C55.7401 40.9695 55.6574 40.902 55.3457 40.8842L55.3379 40.7016L56.8315 40.6406L56.8393 40.8233C56.4763 40.8942 56.4785 40.9507 56.5623 41.1666C56.7242 41.5674 57.1633 42.5839 57.3644 43.0555L57.3789 43.0545C57.6236 42.3004 57.8145 41.7014 57.9308 41.2529C58.0313 40.8975 58.0279 40.8255 57.6157 40.7923L57.6079 40.6085L58.7809 40.5598L58.7876 40.7425Z" fill="white"/>
<path d="M62.1658 42.6702C62.1557 42.9016 62.1077 43.3733 62.0842 43.5294L59.5416 43.8062L59.5215 43.6291C59.9416 43.5472 59.9874 43.5117 59.9405 43.081L59.7249 41.1366C59.6757 40.696 59.6232 40.676 59.2657 40.6849L59.2456 40.5077L61.5938 40.252C61.6083 40.3428 61.6731 40.6949 61.7279 41.006L61.5458 41.0514C61.481 40.8787 61.3983 40.7192 61.2978 40.6373C61.2028 40.5554 61.0643 40.5343 60.785 40.5653L60.546 40.5919C60.3616 40.6118 60.3426 40.624 60.3616 40.7912L60.48 41.8652L60.8141 41.8287C61.233 41.7833 61.3 41.7501 61.3257 41.3891L61.5056 41.3692L61.6184 42.3867L61.4385 42.4067C61.3335 42.049 61.2665 42.0357 60.842 42.0823L60.508 42.1188L60.6051 43.0002C60.632 43.2437 60.6655 43.3622 60.7705 43.4021C60.8643 43.4331 61.0353 43.4242 61.2252 43.4043C61.4843 43.3766 61.6552 43.3213 61.7558 43.1828C61.843 43.061 61.9144 42.8883 61.9803 42.6558L62.1658 42.6702Z" fill="white"/>
<path d="M65.9942 42.9204C65.9651 42.9259 65.9093 42.9303 65.8456 42.9414C65.2178 43.0222 65.0055 42.9148 64.7453 42.6347C64.5799 42.452 64.3978 42.2051 64.2057 41.9648C64.0996 41.8286 63.999 41.7788 63.8404 41.8076L63.7465 41.8242L63.8795 42.5561C63.9543 42.9724 64.0068 43.0089 64.3889 42.9779L64.4202 43.1529L62.9299 43.4175L62.8986 43.2426C63.2628 43.1418 63.3086 43.0864 63.2338 42.6712L62.8852 40.7468C62.8126 40.346 62.759 40.3039 62.3926 40.3327L62.3613 40.1578L63.7488 39.9108C64.1833 39.8334 64.4391 39.84 64.6659 39.9397C64.8882 40.0404 65.0614 40.2364 65.1172 40.5475C65.1966 40.9882 64.9542 41.2805 64.648 41.4743C64.7497 41.6116 64.9921 41.9094 65.182 42.1143C65.4055 42.3645 65.5429 42.5052 65.6557 42.5937C65.7853 42.69 65.8802 42.7354 65.9953 42.7554L65.9942 42.9204ZM63.8393 41.6005C64.047 41.564 64.2079 41.4986 64.2995 41.3846C64.4425 41.2141 64.4749 41.0015 64.4291 40.7457C64.3319 40.2098 63.9912 40.0736 63.7153 40.1223C63.5924 40.1445 63.5265 40.1766 63.5019 40.212C63.4728 40.2485 63.4717 40.3006 63.4907 40.4058L63.7108 41.6238L63.8393 41.6005Z" fill="white"/>
<path d="M67.8265 39.8666C67.65 39.5799 67.373 39.2599 66.9798 39.3573C66.7072 39.4249 66.5586 39.6773 66.6312 39.9641C66.6994 40.2354 66.9138 40.345 67.3976 40.4612C67.9718 40.5864 68.3918 40.7757 68.5158 41.2651C68.6577 41.8287 68.2969 42.3857 67.5875 42.5617C67.4121 42.6049 67.2356 42.6226 67.0781 42.6149C66.9317 42.6093 66.8301 42.5927 66.7586 42.5783C66.6793 42.4665 66.5106 42.0679 66.4022 41.78L66.5575 41.6781C66.7351 41.9704 67.163 42.4576 67.6299 42.3414C67.9271 42.2672 68.0645 42.0136 67.9841 41.6969C67.9103 41.4057 67.65 41.2762 67.2356 41.1688C66.6748 41.0348 66.257 40.8554 66.1374 40.3815C66.0001 39.8379 66.3162 39.3086 67.0066 39.137C67.3183 39.0595 67.6199 39.0894 67.7148 39.0971C67.7808 39.2754 67.8701 39.4891 67.9874 39.7858L67.8265 39.8666Z" fill="white"/>
<path d="M69.4962 41.9779L69.4426 41.8074C69.7913 41.6623 69.8236 41.6147 69.695 41.2073L69.1097 39.3449C68.9779 38.9263 68.9265 38.9108 68.5556 38.9872L68.502 38.8167L69.9442 38.3716L69.9979 38.5421C69.6494 38.6871 69.6202 38.7281 69.7511 39.1467L70.3364 41.0091C70.4645 41.4177 70.5137 41.4398 70.8835 41.3634L70.9372 41.5339L69.4962 41.9779Z" fill="white"/>
<path d="M73.3865 38.0286C73.2331 37.8038 73.105 37.6676 72.9874 37.6145C72.8702 37.5613 72.7441 37.5824 72.4681 37.6887L72.2581 37.7695L73.1383 40.015C73.2972 40.418 73.3538 40.4291 73.7787 40.304L73.8433 40.4701L72.3186 41.0569L72.2536 40.8908C72.6334 40.7059 72.6691 40.6594 72.5108 40.2564L71.6301 38.0109L71.4717 38.0718C71.084 38.2213 71.0179 38.301 70.9847 38.4072C70.9365 38.518 70.9445 38.7018 70.9757 38.962L70.8025 39.0284C70.6853 38.6741 70.5781 38.3176 70.4917 38.0718L70.6094 38.0264C70.7201 38.1039 70.7871 38.095 70.9221 38.043L72.8022 37.3188C72.9238 37.2723 72.9774 37.2181 73.0221 37.0974L73.1393 37.052C73.2222 37.2502 73.4099 37.6588 73.5518 37.9533L73.3865 38.0286Z" fill="white"/>
<path d="M76.5097 35.7497C76.2441 35.9224 76.196 36.0486 76.1657 36.3996C76.1354 36.7506 76.1145 37.0064 76.1165 37.5423C76.1121 37.6984 76.1235 37.7549 76.195 37.8966L76.4899 38.479C76.6999 38.8931 76.7455 38.9053 77.1645 38.7359L77.2425 38.8909L75.7859 39.6173L75.708 39.4623C76.0719 39.2408 76.0987 39.1932 75.8887 38.7791L75.633 38.2742C75.5749 38.1602 75.5347 38.1236 75.4473 38.0527C75.2016 37.8678 74.8809 37.6453 74.3685 37.2965C74.0498 37.0784 73.9505 37.0706 73.6859 37.1581L73.6055 36.9987L74.8823 36.3619L74.9628 36.5214C74.6922 36.7074 74.7245 36.7595 74.8833 36.8857C75.2016 37.126 75.556 37.3718 75.9021 37.6209C75.9011 37.2965 75.912 36.755 75.8787 36.424C75.8584 36.2059 75.8216 36.145 75.4687 36.269L75.3882 36.1095L76.4283 35.5913L76.5097 35.7497Z" fill="white"/>
<path d="M80.7189 37.8437C79.8109 37.7894 79.1 37.3066 78.5887 36.5238L78.5852 36.5194C78.0768 35.7421 77.9239 34.905 78.2421 34.0569L78.4278 34.1023C78.3037 34.7345 78.5082 35.5317 78.9883 36.267C79.4689 37.0022 80.1714 37.5458 80.7502 37.6532L80.7189 37.8437Z" fill="white"/>
<path d="M80.4262 36.9877L80.321 36.8437C80.6049 36.5968 80.6203 36.5414 80.3681 36.1949L79.2149 34.6137C78.9557 34.2583 78.9011 34.2605 78.5759 34.4499L78.4712 34.3059L79.6945 33.429L79.7992 33.5729C79.5157 33.8198 79.5008 33.8686 79.76 34.2229L80.9132 35.804C81.1654 36.1506 81.2191 36.1561 81.5452 35.9668L81.6505 36.1107L80.4262 36.9877Z" fill="white"/>
<path d="M84.3841 33.7314L84.259 33.603C84.5013 33.315 84.4948 33.2719 84.1662 32.9342L82.7855 31.5302L82.7677 31.5479L83.8246 34.2163L83.7228 34.3127L81.1666 33.1478L81.1522 33.1611L82.0404 34.1588C82.3184 34.4799 82.4897 34.6493 82.6148 34.7489C82.79 34.8995 82.8903 34.8674 83.1539 34.6582L83.2795 34.7866L82.4092 35.6182L82.2841 35.4897C82.4718 35.2749 82.4762 35.1498 82.3735 34.9937C82.2841 34.8597 82.1208 34.6404 81.7743 34.2286L81.1254 33.4479C80.7511 33.0062 80.6766 32.9796 80.3365 33.2464L80.2114 33.118L80.9591 32.4038L83.2145 33.3461L82.3601 31.064L83.0894 30.3665L83.2145 30.4949C82.9543 30.8005 82.9687 30.8437 83.2716 31.1404L84.6388 32.4802C84.9739 32.8101 85.0176 32.819 85.3269 32.5788L85.452 32.7072L84.3841 33.7314Z" fill="white"/>
<path d="M85.6406 29.3365C86.0219 28.8947 86.434 28.7121 86.8406 28.98C87.1275 29.1682 87.2487 29.4683 87.2263 29.7872C87.2094 30.0806 87.055 30.4382 86.8262 30.7826L86.1222 31.8356L85.9728 31.737C86.156 31.3982 86.1515 31.3418 85.7871 31.1026L84.1508 30.0275C83.7819 29.7861 83.7318 29.806 83.5049 30.0806L83.3555 29.9821L84.1642 28.7718C84.3772 28.453 84.5584 28.2736 84.7674 28.1839C84.9729 28.0975 85.2097 28.1219 85.4187 28.2603C85.8298 28.5305 85.7638 28.9877 85.6253 29.3254L85.6406 29.3365ZM85.234 29.8149C85.5001 29.4174 85.4565 29.1317 85.1015 28.8981C84.7113 28.6423 84.4164 28.7708 84.267 28.9944C84.2029 29.0896 84.1885 29.176 84.1975 29.2169C84.2074 29.2657 84.267 29.3166 84.3573 29.3753L85.1715 29.9101L85.234 29.8149ZM86.1436 30.549C86.4608 30.7571 86.6063 30.7339 86.7477 30.5113C86.8987 30.2766 86.8977 29.9001 86.4777 29.6244C86.0755 29.3598 85.7102 29.4727 85.3974 29.9411L85.3413 30.0242L86.1436 30.549Z" fill="white"/>
<path d="M88.3015 25.7734C88.4937 25.8875 88.933 26.1632 89.0492 26.2496L88.1879 28.515L88.0191 28.4519C88.1397 28.0344 88.1288 27.9769 87.7197 27.8241L85.8774 27.1364C85.4643 26.9815 85.4172 27.018 85.2499 27.359L85.0811 27.2959L85.6207 25.8764L85.7895 25.9395C85.6887 26.306 85.7011 26.3581 86.1157 26.5131L87.9957 27.2151C88.2211 27.2992 88.3105 27.3114 88.3889 27.235C88.455 27.1641 88.5096 27.0468 88.5642 26.9017C88.6401 26.7013 88.6704 26.5219 88.583 26.3614C88.5185 26.2418 88.3989 26.0957 88.1854 25.9207L88.3015 25.7734Z" fill="white"/>
<path d="M90 25.985L89.8421 26.0836C89.4996 25.5576 88.7609 25.1313 87.8975 24.9475C87.0337 24.7637 86.1371 24.8778 85.6486 25.1911L85.5503 25.0383C86.2354 24.4471 87.0784 24.2909 88.0038 24.488C88.9162 24.6818 89.6212 25.1668 90 25.985Z" fill="white"/>
<path d="M22.144 21.3478C22.144 20.7997 21.696 20.3557 21.143 20.3557C20.5901 20.3557 20.1421 20.7997 20.1421 21.3478C20.1421 21.8959 20.5901 22.3399 21.143 22.3399C21.696 22.3399 22.144 21.8959 22.144 21.3478Z" fill="white"/>
<path d="M89.5701 21.3478C89.5701 20.7997 89.1223 20.3557 88.5692 20.3557C88.0162 20.3557 87.5684 20.7997 87.5684 21.3478C87.5684 21.8959 88.0162 22.3399 88.5692 22.3399C89.1208 22.3399 89.5701 21.8959 89.5701 21.3478Z" fill="white"/>
<mask id="mask0_2001_4286" style="mask-type:luminance" maskUnits="userSpaceOnUse" x="98" y="7" width="140" height="30">
<path d="M238 7H98V37H238V7Z" fill="white"/>
</mask>
<g mask="url(#mask0_2001_4286)">
<path d="M179.814 24.4006H175.163V26.6105H179.814V24.4006Z" fill="white"/>
<path d="M158.562 20.7759H161.056V30.14H163.519V20.7759H166.02V18.582H158.562V20.7759ZM155.136 22.8983H150.736V18.582H148.274V30.14H150.736V25.132H155.136V30.14H157.598V18.582H155.136V22.8983ZM137.844 18.582H135.374V27.954H131.28V18.582H128.818V30.14H136.879V32.6758H139.177V27.954H137.844V18.582ZM213.51 30.14H219.971V27.954H215.972V25.1877H219.807V22.9858H215.972V20.7759H219.971V18.582H213.51V30.14ZM210.138 23.9159C210.466 23.6699 210.73 23.3467 210.908 22.9742C211.086 22.6017 211.171 22.191 211.157 21.7775C211.17 21.3125 211.078 20.8508 210.889 20.4268C210.701 20.0028 210.419 19.6276 210.067 19.3292C209.236 18.7782 208.25 18.5186 207.26 18.5899H204.358V30.14H208.24C209.295 30.2071 210.337 29.8694 211.157 29.194C211.479 28.8896 211.734 28.52 211.905 28.1091C212.077 27.6982 212.162 27.2554 212.153 26.8093C212.168 26.4007 212.1 25.9934 211.955 25.6121C211.809 25.2309 211.588 24.8836 211.306 24.5915C210.978 24.2728 210.577 24.0431 210.138 23.9238V23.9159ZM206.821 20.6726H207.299C207.679 20.6566 208.053 20.7593 208.374 20.9667C208.52 21.0786 208.638 21.2259 208.714 21.3952C208.791 21.5646 208.824 21.7506 208.813 21.9365C208.823 22.2014 208.758 22.4637 208.624 22.6917C208.456 22.936 208.205 23.1087 207.919 23.1766C207.712 23.2323 207.498 23.259 207.283 23.256H206.821V20.6726ZM209.487 27.2227C209.387 27.4486 209.219 27.6374 209.008 27.7632C208.573 27.9783 208.089 28.0768 207.605 28.0494H206.821V25.2831H207.472C207.954 25.2488 208.438 25.3192 208.891 25.4898C209.15 25.596 209.361 25.7937 209.487 26.0462C209.576 26.2293 209.621 26.4306 209.62 26.6345C209.624 26.8505 209.581 27.0648 209.495 27.2624L209.487 27.2227ZM140.204 30.14H146.666V27.954H142.698V25.1877H146.533V22.9858H142.698V20.7759H146.698V18.582H140.204V30.14ZM230.526 18.582V20.7759H233.028V30.14H235.491V20.7759H237.992V18.582H230.526ZM173.391 19.4802C173.002 19.1259 172.534 18.8723 172.027 18.741C171.479 18.6146 170.918 18.5585 170.357 18.574H167.008V30.14H169.478V25.9746H170.693C171.224 26.0083 171.755 25.9335 172.256 25.7546C172.758 25.5757 173.218 25.2964 173.611 24.9333C174.25 24.2162 174.593 23.2767 174.567 22.3101C174.579 21.7803 174.479 21.2541 174.275 20.7663C174.071 20.2785 173.767 19.8401 173.384 19.4802H173.391ZM171.501 23.4548C171.108 23.712 170.642 23.8269 170.176 23.7807H169.447V20.7759H170.042C170.545 20.7327 171.049 20.8465 171.485 21.1019C171.663 21.2363 171.806 21.4117 171.903 21.6136C172 21.8155 172.048 22.038 172.043 22.2624C172.045 22.4894 171.998 22.7143 171.905 22.9206C171.811 23.1269 171.673 23.3094 171.501 23.4548ZM226.943 18.3276C225.406 18.2568 223.903 18.8055 222.763 19.8538C222.165 20.4362 221.694 21.1386 221.38 21.9161C221.065 22.6935 220.914 23.5289 220.936 24.369C220.921 25.1692 221.066 25.9642 221.363 26.7058C221.66 27.4475 222.102 28.1204 222.663 28.6837C223.224 29.2471 223.892 29.6891 224.626 29.9832C225.36 30.2772 226.146 30.4171 226.935 30.3944C227.914 30.4083 228.881 30.1761 229.75 29.7187L229.829 29.679V26.6106L229.562 26.9285C229.26 27.2973 228.881 27.594 228.452 27.7974C228.024 28.0007 227.557 28.1058 227.084 28.105C226.169 28.1099 225.284 27.7732 224.598 27.1591C224.227 26.8089 223.935 26.3822 223.74 25.9078C223.545 25.4334 223.452 24.9222 223.469 24.4087C223.462 23.4392 223.805 22.5006 224.433 21.7696C224.755 21.4046 225.151 21.1142 225.594 20.9181C226.036 20.7219 226.515 20.6247 226.998 20.6328C227.486 20.6382 227.967 20.7495 228.41 20.9593C228.852 21.1691 229.245 21.4725 229.562 21.849L229.829 22.1591V19.0828L229.75 19.043C228.892 18.5697 227.928 18.3263 226.951 18.3356L226.943 18.3276ZM183.538 25.8554V18.582H181.076V30.14H182.966L188.698 22.8348V30.14H191.161V18.582H189.239L183.538 25.8554ZM199.943 22.8983H195.544V18.582H193.082V30.14H195.544V25.132H199.943V30.14H202.406V18.582H199.943V22.8983Z" fill="white"/>
<path d="M134.182 11.3323C133.537 10.7875 132.716 10.5043 131.877 10.5374H130.833V8.82833H134.221V7H128.818V16.2607H131.884C132.341 16.2687 132.796 16.2043 133.233 16.07C133.762 15.9047 134.223 15.5664 134.543 15.1081C134.877 14.6147 135.055 14.0295 135.052 13.4309C135.062 13.0378 134.99 12.647 134.838 12.285C134.686 11.923 134.46 11.5981 134.174 11.3323H134.182ZM132.731 14.1066C132.379 14.3765 131.94 14.5014 131.5 14.4563H130.833V12.3816H131.532C131.96 12.3384 132.388 12.4668 132.723 12.7393C132.814 12.8322 132.885 12.9428 132.933 13.0644C132.98 13.186 133.002 13.3162 132.998 13.4468C133.002 13.5701 132.982 13.6931 132.937 13.808C132.892 13.9228 132.825 14.0272 132.739 14.1145L132.731 14.1066ZM157.731 11.3084L161.597 7H159.025L156.03 10.5453V7H153.983V16.2607H156.03V12.3657L159.103 16.2926H161.77L157.731 11.3084ZM138.966 7L135.099 16.2607H137.287L138.072 14.3847H141.428L142.212 16.2607H144.384L140.612 7H138.966ZM138.73 12.636L139.773 9.98885L140.793 12.636H138.73ZM150.493 10.4499H147.027V7H145.012V16.2607H147.035V12.2862H150.461V16.2607H152.477V7H150.454L150.493 10.4499Z" fill="white"/>
<path d="M110.437 7V13.725L115.84 7H110.437Z" fill="white"/>
<path d="M119.69 7.92993L110.437 19.4562V22.3258C110.437 22.2463 110.437 22.1668 110.476 22.0873L110.594 21.5786C110.802 20.8466 111.137 20.1578 111.582 19.5436L111.895 19.162C112.241 18.7998 112.634 18.4869 113.064 18.232C113.293 18.112 113.528 18.0059 113.77 17.9141C114.278 17.7587 114.808 17.6889 115.338 17.7074L115.871 17.7789C116.292 17.8761 116.697 18.0284 117.079 18.232C117.294 18.3597 117.501 18.5004 117.698 18.6533C118.268 19.1369 118.739 19.7282 119.087 20.3942L119.298 20.8552C119.462 21.3421 119.585 21.842 119.667 22.3496L119.69 7.92993Z" fill="white"/>
<path d="M115.087 18.7488C113.064 18.7488 111.417 20.8474 111.417 23.4229C111.417 25.9984 113.064 28.105 115.087 28.105C117.11 28.105 118.765 26.0064 118.765 23.4229C118.765 20.8394 117.118 18.7488 115.087 18.7488ZM115.087 26.5946C113.872 26.5946 112.876 25.1717 112.876 23.4149C112.876 21.6582 113.864 20.2353 115.087 20.2353C116.311 20.2353 117.307 21.6582 117.307 23.4149C117.307 25.1717 116.311 26.5946 115.087 26.5946Z" fill="white"/>
<path d="M110.602 25.2829L110.484 24.7741L110.445 24.5356V30.1557H119.698V24.5913C119.583 25.2491 119.388 25.8899 119.118 26.4991L118.867 26.9363C118.51 27.499 118.056 27.9917 117.526 28.391L117.103 28.6612C116.721 28.8646 116.315 29.0169 115.895 29.1143C115.636 29.1598 115.374 29.1864 115.111 29.1938C114.754 29.184 114.399 29.1361 114.052 29.0508C113.804 28.9758 113.56 28.8855 113.323 28.7805C112.79 28.495 112.31 28.1185 111.904 27.6676L111.582 27.2861C111.143 26.6814 110.811 26.0034 110.602 25.2829Z" fill="white"/>
<path d="M98 29.2574L107.253 17.7311V14.8218C107.253 14.9013 107.253 14.9808 107.253 15.0603L107.128 15.569C106.918 16.3005 106.584 16.9893 106.14 17.604L105.818 17.9855C105.467 18.3547 105.066 18.6707 104.626 18.9236C104.398 19.045 104.162 19.1511 103.92 19.2415C103.413 19.3981 102.883 19.468 102.352 19.4482L101.819 19.3767C101.391 19.2818 100.977 19.1294 100.588 18.9236C100.37 18.7963 100.161 18.6555 99.9604 18.5022C99.3939 18.0177 98.9254 17.4265 98.5804 16.7613L98.3687 16.3004C98.205 15.8134 98.0821 15.3135 98 14.8059V29.2574Z" fill="white"/>
<path d="M102.603 18.399C104.626 18.399 106.273 16.3005 106.273 13.725C106.273 11.1495 104.634 9.04297 102.603 9.04297C100.572 9.04297 98.9331 11.1415 98.9331 13.725C98.9331 16.3084 100.58 18.399 102.603 18.399ZM102.603 10.5533C103.827 10.5533 104.814 11.9762 104.814 13.7329C104.814 15.4897 103.818 16.9126 102.603 16.9126C101.388 16.9126 100.392 15.4897 100.392 13.7329C100.392 11.9762 101.388 10.5533 102.603 10.5533Z" fill="white"/>
<path d="M107.088 11.8728L107.214 12.3816C107.214 12.4611 107.214 12.5406 107.214 12.6121V7H98V12.5644C98.1146 11.9065 98.3097 11.2656 98.5804 10.6566L98.8311 10.2194C99.1905 9.67026 99.6419 9.18875 100.164 8.79651L100.588 8.52621C100.97 8.32316 101.375 8.17088 101.795 8.07312C102.055 8.02829 102.317 8.00168 102.579 7.99364C102.937 8.00315 103.292 8.0511 103.638 8.13675C103.886 8.213 104.13 8.30323 104.367 8.40699C104.895 8.67367 105.375 9.02838 105.787 9.45628L106.108 9.83782C106.551 10.4534 106.886 11.1418 107.097 11.8728H107.088Z" fill="white"/>
<path d="M107.246 23.4229L101.851 30.1399H107.246V23.4229Z" fill="white"/>
<path d="M117.079 7L98.5332 30.14H100.58L119.165 7H117.079Z" fill="white"/>
<path d="M109.684 28.4543H108.031V30.1526H109.684V28.4543Z" fill="white"/>
<path d="M120.616 28.5502V30.14C121.137 30.1788 121.623 30.4239 121.968 30.8225C122.313 31.2211 122.489 31.7411 122.459 32.2704C122.459 32.8119 122.257 33.3334 121.891 33.7279C121.525 34.1225 121.024 34.3603 120.49 34.3928C119.458 34.332 118.436 34.1451 117.448 33.8364L107.998 31.4516C102.799 30.1957 98 31.6424 98 35.0844H99.5686C99.5686 33.8125 102.007 32.9619 107.222 34.2895L116.821 36.6504C118.6 37.2018 120.513 37.1177 122.239 36.4119C122.913 36.0428 123.477 35.4953 123.869 34.8277C124.261 34.1601 124.467 33.3971 124.466 32.6201C124.481 32.0936 124.394 31.5691 124.208 31.0772C124.022 30.5853 123.741 30.1358 123.382 29.7549C123.023 29.374 122.593 29.0692 122.117 28.8583C121.64 28.6474 121.128 28.5345 120.608 28.5264L120.616 28.5502Z" fill="white"/>
</g>
<path d="M262.089 2.68645C262.395 1.77118 263.726 1.77118 264.032 2.68646L267.36 12.6444C267.496 13.0537 267.888 13.3309 268.331 13.3309H279.098C280.087 13.3309 280.499 14.5623 279.699 15.128L270.988 21.2824C270.63 21.5354 270.48 21.9838 270.617 22.3931L273.944 32.3511C274.25 33.2663 273.172 34.0274 272.372 33.4618L263.661 27.3074C263.303 27.0544 262.818 27.0544 262.46 27.3074L253.75 33.4618C252.949 34.0274 251.872 33.2663 252.177 32.3511L255.505 22.3931C255.642 21.9838 255.492 21.5354 255.134 21.2824L246.423 15.128C245.623 14.5623 246.034 13.3309 247.024 13.3309H257.79C258.233 13.3309 258.625 13.0537 258.762 12.6444L262.089 2.68645Z" fill="white"/>
<path d="M262.202 24.7052C264.773 24.842 266.512 24.9105 267.423 24.9105C267.638 24.9105 267.807 24.8512 267.929 24.7326C268.061 24.6049 268.126 24.4361 268.126 24.2263V22.9948H264.89C263.905 22.9948 263.187 22.7804 262.737 22.3517C262.296 21.9138 262.076 21.2159 262.076 20.2581V19.8476C262.076 18.8897 262.296 18.1964 262.737 17.7677C263.187 17.3298 263.905 17.1108 264.89 17.1108H269.828V19.0265H265.452C264.89 19.0265 264.608 19.3002 264.608 19.8476V20.1212C264.608 20.6686 264.89 20.9423 265.452 20.9423H267.985C268.904 20.9423 269.58 21.1521 270.011 21.5717C270.443 21.9913 270.659 22.6481 270.659 23.5421V24.2263C270.659 25.1203 270.443 25.7771 270.011 26.1967C269.58 26.6164 268.904 26.8261 267.985 26.8261C267.507 26.8261 267 26.817 266.465 26.7988L265.171 26.7441C264.214 26.6984 263.224 26.6346 262.202 26.5525V24.7052Z" fill="white"/>
<path d="M279.382 24.6371C279.382 25.3213 279.18 25.8595 278.777 26.2518C278.383 26.6349 277.834 26.8264 277.13 26.8264H273.894C273.191 26.8264 272.638 26.6349 272.234 26.2518C271.84 25.8595 271.643 25.3213 271.643 24.6371V21.4899C271.643 20.8057 271.84 20.272 272.234 19.8889C272.638 19.4966 273.191 19.3005 273.894 19.3005H277.13C277.834 19.3005 278.383 19.4966 278.777 19.8889C279.18 20.272 279.382 20.8057 279.382 21.4899V24.6371ZM276.919 21.6951C276.919 21.3302 276.732 21.1478 276.357 21.1478H274.668C274.293 21.1478 274.106 21.3302 274.106 21.6951V24.4318C274.106 24.7967 274.293 24.9792 274.668 24.9792H276.357C276.732 24.9792 276.919 24.7967 276.919 24.4318V21.6951Z" fill="white"/>
<path d="M286.697 18.9582C286.425 18.9399 286.064 18.9126 285.613 18.8761C285.163 18.8396 284.774 18.8214 284.446 18.8214C284.117 18.8214 283.906 18.867 283.812 18.9582C283.719 19.0494 283.672 19.1635 283.672 19.3003V19.9845H285.993V21.8318H283.672V26.6894H281.209V21.8318H280.225V19.9845H281.209V19.0266C281.209 18.4063 281.401 17.9092 281.786 17.5351C282.171 17.1611 282.682 16.9741 283.32 16.9741C283.892 16.9741 284.497 16.9924 285.135 17.0289C285.773 17.0653 286.294 17.0927 286.697 17.1109V18.9582Z" fill="white"/>
<path d="M292.187 26.6895C291.278 26.7807 290.386 26.8263 289.514 26.8263C288.876 26.8263 288.365 26.6393 287.981 26.2653C287.596 25.8912 287.403 25.3941 287.403 24.7738V21.2845H286.559V19.4372H287.403L287.685 17.7952H289.866V19.4372H291.625V21.2845H289.866V24.4317C289.866 24.5685 289.913 24.6826 290.007 24.7738C290.1 24.865 290.218 24.9106 290.358 24.9106H292.187V26.6895Z" fill="white"/>
<path fill-rule="evenodd" clip-rule="evenodd" d="M268.126 22.995V24.2265C268.126 24.3211 268.113 24.4073 268.086 24.4852C268.054 24.5801 268.001 24.6627 267.929 24.7329C267.807 24.8514 267.638 24.9107 267.423 24.9107C266.707 24.9107 265.478 24.8684 263.735 24.7837C263.262 24.7608 262.751 24.7347 262.202 24.7055V26.5527C263.225 26.6349 264.214 26.6987 265.171 26.7443L266.465 26.7991C267 26.8173 267.507 26.8264 267.986 26.8264C268.904 26.8264 269.58 26.6166 270.011 26.197C270.114 26.0975 270.204 25.9848 270.282 25.8588C270.481 25.5378 270.601 25.1306 270.642 24.637C270.653 24.5063 270.659 24.3694 270.659 24.2265V23.5424C270.659 22.7194 270.476 22.0974 270.11 21.6765C270.079 21.6401 270.046 21.6053 270.011 21.572C269.58 21.1523 268.904 20.9425 267.986 20.9425H265.453C264.89 20.9425 264.608 20.6688 264.608 20.1215V19.8478C264.608 19.3005 264.89 19.0268 265.453 19.0268H269.828V17.1111H264.89C263.905 17.1111 263.187 17.3301 262.737 17.7679C262.296 18.1967 262.076 18.89 262.076 19.8478V20.2583C262.076 21.2162 262.296 21.9141 262.737 22.3519C263.187 22.7806 263.905 22.995 264.89 22.995H268.126ZM271.652 21.2366C271.646 21.3186 271.643 21.403 271.643 21.4899V24.637C271.643 25.1259 271.743 25.5402 271.944 25.8801C272.025 26.0158 272.121 26.1397 272.234 26.2517C272.637 26.6349 273.19 26.8264 273.894 26.8264H277.13C277.834 26.8264 278.383 26.6349 278.776 26.2517C279.18 25.8595 279.382 25.3212 279.382 24.637V21.4899C279.382 20.8609 279.211 20.3592 278.87 19.9846C278.84 19.9518 278.809 19.9198 278.776 19.8889C278.749 19.8615 278.721 19.8351 278.692 19.8096C278.305 19.4702 277.785 19.3005 277.13 19.3005H273.894C273.19 19.3005 272.637 19.4966 272.234 19.8889C271.889 20.2234 271.696 20.6726 271.652 21.2366ZM280.224 19.9846V21.8319H281.209V26.6896H283.672V21.8319H285.993V19.9846H283.672V19.3005C283.672 19.1637 283.719 19.0496 283.812 18.9584C283.906 18.8672 284.117 18.8216 284.446 18.8216C284.622 18.8216 284.815 18.8268 285.026 18.8373C285.072 18.8395 285.118 18.842 285.165 18.8448C285.307 18.8531 285.456 18.8636 285.613 18.8763C285.729 18.8856 285.838 18.8943 285.941 18.9025C285.959 18.9039 285.976 18.9052 285.993 18.9065C286.208 18.9233 286.396 18.9374 286.559 18.9489C286.607 18.9523 286.653 18.9555 286.697 18.9584V17.1111C286.562 17.105 286.414 17.0979 286.252 17.0897C285.931 17.0735 285.559 17.0533 285.135 17.029C284.497 16.9925 283.892 16.9743 283.32 16.9743C282.682 16.9743 282.171 17.1613 281.786 17.5353C281.401 17.9093 281.209 18.4065 281.209 19.0268V19.9846H280.224ZM286.559 21.2846H287.403V24.7739C287.403 25.3942 287.596 25.8914 287.98 26.2654C288.365 26.6394 288.876 26.8264 289.514 26.8264C290.386 26.8264 291.277 26.7808 292.187 26.6896V24.9107H290.358C290.217 24.9107 290.1 24.8651 290.007 24.7739C289.913 24.6827 289.866 24.5686 289.866 24.4318V21.2846H291.625V19.4373H289.866V17.7953H287.684L287.403 19.4373H286.559V21.2846ZM288.23 16.3051V15.6886L286.768 15.6226C286.373 15.6047 285.86 15.5777 285.225 15.5414C284.561 15.5034 283.925 15.4841 283.32 15.4841C282.351 15.4841 281.424 15.78 280.703 16.4816C280.119 17.0497 279.808 17.7489 279.711 18.4945H279.456C278.775 18.0074 277.961 17.8103 277.13 17.8103H273.894C272.976 17.8103 272.083 18.0507 271.361 18.6462V15.6209H264.89C263.715 15.6209 262.515 15.8766 261.653 16.7142C260.796 17.5476 260.543 18.7164 260.543 19.8478V20.2583C260.543 21.2963 260.756 22.3574 261.438 23.1724L260.67 23.1315V27.9249L262.076 28.0378C263.114 28.1212 264.121 28.1862 265.096 28.2327L265.1 28.2329L266.406 28.2881L266.412 28.2883C266.962 28.3071 267.487 28.3166 267.986 28.3166C269.108 28.3166 270.259 28.0638 271.095 27.2507C271.095 27.2506 271.095 27.2508 271.095 27.2507C271.109 27.2649 271.123 27.2789 271.138 27.293L271.15 27.3055L271.163 27.3177C271.92 28.0363 272.895 28.3166 273.894 28.3166H277.13C278.049 28.3166 278.953 28.0795 279.677 27.4711V28.1798H285.204V23.3221H285.871V24.7739C285.871 25.7158 286.175 26.6176 286.896 27.3191C287.618 28.0207 288.545 28.3166 289.514 28.3166C290.441 28.3166 291.385 28.2681 292.344 28.1719L293.719 28.034V23.4206H291.398V22.7748H293.157V17.9471H291.398V16.3051H288.23ZM276.356 21.1478C276.732 21.1478 276.919 21.3302 276.919 21.6951V24.4318C276.919 24.7967 276.732 24.9791 276.356 24.9791H274.668C274.293 24.9791 274.105 24.7967 274.105 24.4318V21.6951C274.105 21.3302 274.293 21.1478 274.668 21.1478H276.356Z" fill="#080213"/>
<path d="M262.202 38.3888C264.773 38.5257 266.512 38.5941 267.423 38.5941C267.638 38.5941 267.807 38.5348 267.929 38.4162C268.061 38.2885 268.126 38.1197 268.126 37.9099V36.6784H264.89C263.905 36.6784 263.187 36.464 262.737 36.0352C262.296 35.5974 262.076 34.8995 262.076 33.9417V33.5312C262.076 32.5733 262.296 31.88 262.737 31.4512C263.187 31.0134 263.905 30.7944 264.89 30.7944H269.828V32.7101H265.452C264.89 32.7101 264.608 32.9838 264.608 33.5312V33.8048C264.608 34.3522 264.89 34.6259 265.452 34.6259H267.985C268.904 34.6259 269.58 34.8357 270.011 35.2553C270.443 35.6749 270.659 36.3317 270.659 37.2257V37.9099C270.659 38.8039 270.443 39.4607 270.011 39.8803C269.58 40.3 268.904 40.5098 267.985 40.5098C267.507 40.5098 267 40.5006 266.465 40.4824L265.171 40.4277C264.214 40.382 263.224 40.3182 262.202 40.2361V38.3888Z" fill="white"/>
<path d="M274.246 37.4994V40.3729H271.784V30.7944H274.246V35.6521H275.372L276.92 33.1206H279.523L277.412 36.61L279.523 40.3729H276.92L275.301 37.4994H274.246Z" fill="white"/>
<path d="M283.317 33.3944V40.373H280.854V35.2417H279.799V33.3944H283.317ZM280.854 30.6577H283.317V32.5734H280.854V30.6577Z" fill="white"/>
<path d="M288.527 40.3729C287.898 40.4641 287.298 40.5098 286.726 40.5098C286.163 40.5098 285.689 40.3228 285.305 39.9487C284.92 39.5747 284.728 39.0775 284.728 38.4572V30.7944H287.191V38.1151C287.191 38.252 287.238 38.366 287.331 38.4572C287.425 38.5485 287.542 38.5941 287.683 38.5941H288.527V40.3729Z" fill="white"/>
<path d="M293.309 40.3729C292.68 40.4641 292.08 40.5098 291.508 40.5098C290.945 40.5098 290.471 40.3228 290.086 39.9487C289.702 39.5747 289.51 39.0775 289.51 38.4572V30.7944H291.972V38.1151C291.972 38.252 292.019 38.366 292.113 38.4572C292.207 38.5485 292.324 38.5941 292.465 38.5941H293.309V40.3729Z" fill="white"/>
<path d="M294.01 38.4572C295.914 38.594 297.415 38.6624 298.513 38.6624C298.653 38.6624 298.771 38.6168 298.865 38.5256C298.958 38.4344 299.005 38.3203 299.005 38.1835V37.7046H295.98C295.342 37.7046 294.831 37.5176 294.446 37.1436C294.062 36.7696 293.869 36.2724 293.869 35.6521V35.1732C293.869 34.5529 294.062 34.0557 294.446 33.6817C294.831 33.3076 295.342 33.1206 295.98 33.1206H300.764V34.8995H296.824C296.684 34.8995 296.566 34.9451 296.473 35.0363C296.379 35.1276 296.332 35.2416 296.332 35.3784C296.332 35.5153 296.379 35.6293 296.473 35.7205C296.566 35.8117 296.684 35.8573 296.824 35.8573H299.357C299.995 35.8573 300.506 36.0444 300.891 36.4183C301.275 36.7924 301.468 37.2895 301.468 37.9099V38.4572C301.468 39.0775 301.275 39.5747 300.891 39.9487C300.506 40.3227 299.995 40.5097 299.357 40.5097C297.696 40.5097 295.914 40.4185 294.01 40.2361V38.4572Z" fill="white"/>
<path fill-rule="evenodd" clip-rule="evenodd" d="M268.126 36.6784V37.9099C268.126 38.0045 268.113 38.0906 268.086 38.1685C268.054 38.2635 268.001 38.346 267.929 38.4162C267.807 38.5348 267.638 38.5941 267.423 38.5941C266.707 38.5941 265.478 38.5518 263.735 38.4671C263.262 38.4441 262.751 38.418 262.202 38.3888V40.2361C263.225 40.3182 264.214 40.382 265.171 40.4277L266.465 40.4824C267 40.5006 267.507 40.5098 267.986 40.5098C268.904 40.5098 269.58 40.3 270.011 39.8803C270.101 39.7938 270.18 39.6971 270.251 39.5904C270.523 39.1797 270.659 38.6195 270.659 37.9099V37.2257C270.659 36.5161 270.523 35.956 270.251 35.5452C270.18 35.4385 270.101 35.3418 270.011 35.2553C269.58 34.8357 268.904 34.6259 267.986 34.6259H265.453C264.89 34.6259 264.608 34.3522 264.608 33.8048V33.5312C264.608 32.9838 264.89 32.7102 265.453 32.7102H269.828V30.7944H264.89C263.905 30.7944 263.187 31.0134 262.737 31.4513C262.296 31.88 262.076 32.5733 262.076 33.5312V33.9417C262.076 34.8995 262.296 35.5974 262.737 36.0353C263.187 36.464 263.905 36.6784 264.89 36.6784H268.126ZM271.783 40.3729H274.246V37.4994H275.301L276.919 40.3729H279.522L277.412 36.61L279.522 33.1206H276.919L275.372 35.6521H274.246V30.7944H271.783V40.3729ZM275.778 32.0712L276.048 31.6305H279.321V29.1675H284.849V29.3043H293.504V32.4977C294.203 31.8896 295.073 31.6305 295.98 31.6305H302.297V35.7258C302.787 36.3635 303 37.1226 303 37.9099V38.4572C303 39.3992 302.695 40.3009 301.974 41.0024C301.253 41.704 300.325 42 299.357 42C297.739 42 296.019 41.9163 294.197 41.7506L293.535 41.8468C292.839 41.9477 292.163 42 291.508 42C290.96 42 290.44 41.8899 289.968 41.6704L288.753 41.8468C288.057 41.9477 287.381 42 286.726 42C286.044 42 285.406 41.8297 284.849 41.4901V41.8631H276.012L275.778 41.449V41.8631H270.251V41.5308C269.559 41.878 268.765 42 267.986 42C267.487 42 266.962 41.9904 266.412 41.9716L266.406 41.9714L265.1 41.9163L265.096 41.9161C264.121 41.8696 263.114 41.8046 262.076 41.7212L260.67 41.6083V36.8149L261.438 36.8557C260.756 36.0408 260.543 34.9796 260.543 33.9417V33.5312C260.543 32.3998 260.796 31.2309 261.653 30.3976M283.316 40.3729V33.3943H279.799V35.2416H280.854V40.3729H283.316ZM279.321 36.9024V36.7318H279.225L279.321 36.9024ZM283.316 32.5733V30.6576H280.854V32.5733H283.316ZM284.728 38.4572C284.728 38.7412 284.768 38.9993 284.849 39.2316C284.944 39.5069 285.096 39.7459 285.304 39.9487C285.689 40.3228 286.163 40.5098 286.726 40.5098C287.289 40.5098 287.88 40.4656 288.497 40.3772C288.507 40.3758 288.517 40.3744 288.527 40.3729V38.5941H287.682C287.541 38.5941 287.425 38.5485 287.331 38.4572C287.237 38.366 287.19 38.252 287.19 38.1151V30.7944H284.728V38.4572ZM289.51 38.4572C289.51 38.5035 289.511 38.5491 289.513 38.5941C289.539 39.1366 289.72 39.5792 290.059 39.9216C290.068 39.9308 290.077 39.9398 290.086 39.9487C290.471 40.3228 290.945 40.5098 291.508 40.5098C291.822 40.5098 292.146 40.496 292.478 40.4684C292.749 40.4458 293.026 40.414 293.309 40.3729V38.5941H292.464C292.323 38.5941 292.206 38.5485 292.112 38.4572C292.019 38.366 291.972 38.252 291.972 38.1151V30.7944H289.51V38.4572ZM294.01 40.2361C294.289 40.2629 294.567 40.2877 294.841 40.3106C296.435 40.4434 297.941 40.5098 299.357 40.5098C299.995 40.5098 300.506 40.3228 300.891 39.9487C301.275 39.5747 301.468 39.0775 301.468 38.4572V37.9099C301.468 37.2896 301.275 36.7924 300.891 36.4184C300.881 36.4087 300.87 36.3991 300.861 36.3897C300.829 36.3605 300.797 36.3325 300.764 36.3057C300.396 36.0068 299.927 35.8574 299.357 35.8574H296.824C296.683 35.8574 296.566 35.8117 296.473 35.7205C296.379 35.6293 296.332 35.5153 296.332 35.3784C296.332 35.2416 296.379 35.1276 296.473 35.0364C296.566 34.9452 296.683 34.8995 296.824 34.8995H300.764V33.1206H295.98C295.342 33.1206 294.831 33.3077 294.446 33.6817C294.062 34.0557 293.869 34.5529 293.869 35.1732V35.6521C293.869 36.1878 294.013 36.6317 294.3 36.9837C294.333 37.025 294.369 37.0651 294.406 37.1039C294.42 37.1173 294.432 37.1305 294.446 37.1436C294.565 37.2597 294.697 37.3578 294.841 37.4379C295.16 37.6157 295.54 37.7046 295.98 37.7046H299.005V38.1836C299.005 38.3204 298.958 38.4344 298.865 38.5257C298.771 38.6169 298.653 38.6625 298.513 38.6625C297.826 38.6625 296.982 38.6357 295.98 38.5822C295.837 38.5746 295.692 38.5664 295.542 38.5577C295.316 38.5445 295.082 38.53 294.841 38.5143C294.573 38.4968 294.296 38.4778 294.01 38.4572V40.2361ZM275.778 32.0712V29.3043H264.89C263.715 29.3043 262.515 29.5599 261.653 30.3976" fill="#080213"/>
</svg>
