<svg width="345" height="280" viewBox="0 0 345 280" fill="none" xmlns="http://www.w3.org/2000/svg">
<rect width="345" height="280" rx="20" fill="#D7D7D7"/>
<path d="M216 154C216 154.961 215.615 155.883 214.93 156.563C214.245 157.243 213.316 157.625 212.348 157.625H201.391V164.875H208.696C209.664 164.875 210.593 165.257 211.278 165.937C211.963 166.617 212.348 167.539 212.348 168.5C212.348 169.461 211.963 170.383 211.278 171.063C210.593 171.743 209.664 172.125 208.696 172.125H201.391V179.375C201.391 180.336 201.007 181.258 200.322 181.938C199.637 182.618 198.708 183 197.739 183C196.771 183 195.842 182.618 195.157 181.938C194.472 181.258 194.087 180.336 194.087 179.375V154C194.087 153.039 194.472 152.117 195.157 151.437C195.842 150.757 196.771 150.375 197.739 150.375H212.348C213.316 150.375 214.245 150.757 214.93 151.437C215.615 152.117 216 153.039 216 154ZM155.739 163.062C155.739 166.427 154.392 169.655 151.995 172.034C149.598 174.413 146.347 175.75 142.957 175.75H139.304V179.375C139.304 180.336 138.92 181.258 138.235 181.938C137.55 182.618 136.621 183 135.652 183C134.684 183 133.755 182.618 133.07 181.938C132.385 181.258 132 180.336 132 179.375V154C132 153.039 132.385 152.117 133.07 151.437C133.755 150.757 134.684 150.375 135.652 150.375H142.957C146.347 150.375 149.598 151.712 151.995 154.091C154.392 156.47 155.739 159.698 155.739 163.062ZM148.435 163.062C148.435 161.62 147.858 160.237 146.83 159.218C145.803 158.198 144.409 157.625 142.957 157.625H139.304V168.5H142.957C144.409 168.5 145.803 167.927 146.83 166.907C147.858 165.888 148.435 164.505 148.435 163.062ZM188.609 166.688C188.609 171.014 186.877 175.163 183.795 178.222C180.713 181.281 176.533 183 172.174 183H164.87C163.901 183 162.972 182.618 162.287 181.938C161.602 181.258 161.217 180.336 161.217 179.375V154C161.217 153.039 161.602 152.117 162.287 151.437C162.972 150.757 163.901 150.375 164.87 150.375H172.174C176.533 150.375 180.713 152.094 183.795 155.153C186.877 158.212 188.609 162.361 188.609 166.688ZM181.304 166.688C181.304 164.284 180.342 161.979 178.63 160.279C176.918 158.58 174.595 157.625 172.174 157.625H168.522V175.75H172.174C174.595 175.75 176.918 174.795 178.63 173.096C180.342 171.396 181.304 169.091 181.304 166.688ZM132 135.875V103.25C132 101.327 132.77 99.4831 134.139 98.1235C135.509 96.7638 137.367 96 139.304 96H183.13C183.61 95.9996 184.085 96.0931 184.529 96.275C184.972 96.4569 185.375 96.7238 185.714 97.0603L211.28 122.435C211.619 122.772 211.887 123.172 212.071 123.612C212.254 124.052 212.348 124.524 212.348 125V135.875C212.348 136.836 211.963 137.758 211.278 138.438C210.593 139.118 209.664 139.5 208.696 139.5C207.727 139.5 206.798 139.118 206.113 138.438C205.428 137.758 205.043 136.836 205.043 135.875V128.625H183.13C182.162 128.625 181.233 128.243 180.548 127.563C179.863 126.883 179.478 125.961 179.478 125V103.25H139.304V135.875C139.304 136.836 138.92 137.758 138.235 138.438C137.55 139.118 136.621 139.5 135.652 139.5C134.684 139.5 133.755 139.118 133.07 138.438C132.385 137.758 132 136.836 132 135.875ZM186.783 121.375H199.88L186.783 108.375V121.375Z" fill="#A8A8A8"/>
</svg>
